<mxfile host="app.diagrams.net" agent="Mozilla/5.0 (Windows NT 10.0; Win64; x64) AppleWebKit/537.36 (KHTML, like Gecko) Chrome/141.0.0.0 Safari/537.36 Edg/141.0.0.0" version="28.2.5">
  <diagram name="1 oldal" id="dGb0UY-_Se25YQj4G9rX">
    <mxGraphModel dx="3767" dy="1123" grid="1" gridSize="10" guides="1" tooltips="1" connect="1" arrows="1" fold="1" page="1" pageScale="1" pageWidth="827" pageHeight="1169" math="0" shadow="0">
      <root>
        <mxCell id="0" />
        <mxCell id="1" parent="0" />
        <mxCell id="DmxvdTNKo9QtdADaN_bz-2" value="Szakacs" style="ellipse;shape=doubleEllipse;margin=3;whiteSpace=wrap;html=1;align=center;" parent="1" vertex="1">
          <mxGeometry x="285" y="180" width="100" height="40" as="geometry" />
        </mxCell>
        <mxCell id="DmxvdTNKo9QtdADaN_bz-3" value="Vendeglatas" style="ellipse;whiteSpace=wrap;html=1;align=center;" parent="1" vertex="1">
          <mxGeometry x="580" y="50" width="100" height="40" as="geometry" />
        </mxCell>
        <mxCell id="DmxvdTNKo9QtdADaN_bz-4" value="Etterem" style="ellipse;shape=doubleEllipse;margin=3;whiteSpace=wrap;html=1;align=center;" parent="1" vertex="1">
          <mxGeometry x="-560" y="180" width="100" height="40" as="geometry" />
        </mxCell>
        <mxCell id="DmxvdTNKo9QtdADaN_bz-5" value="Foszakacs" style="ellipse;shape=doubleEllipse;margin=3;whiteSpace=wrap;html=1;align=center;" parent="1" vertex="1">
          <mxGeometry x="-180" y="180" width="100" height="40" as="geometry" />
        </mxCell>
        <mxCell id="DmxvdTNKo9QtdADaN_bz-6" value="Vendeg" style="ellipse;shape=doubleEllipse;margin=3;whiteSpace=wrap;html=1;align=center;" parent="1" vertex="1">
          <mxGeometry x="1220" y="180" width="100" height="40" as="geometry" />
        </mxCell>
        <mxCell id="DmxvdTNKo9QtdADaN_bz-7" value="Rendeles" style="ellipse;shape=doubleEllipse;margin=3;whiteSpace=wrap;html=1;align=center;" parent="1" vertex="1">
          <mxGeometry x="1750" y="180" width="100" height="40" as="geometry" />
        </mxCell>
        <mxCell id="DmxvdTNKo9QtdADaN_bz-8" value="Gyakornok" style="ellipse;shape=doubleEllipse;margin=3;whiteSpace=wrap;html=1;align=center;" parent="1" vertex="1">
          <mxGeometry x="750" y="180" width="100" height="40" as="geometry" />
        </mxCell>
        <mxCell id="DmxvdTNKo9QtdADaN_bz-9" value="" style="endArrow=none;html=1;rounded=0;entryX=0.5;entryY=1;entryDx=0;entryDy=0;exitX=0.5;exitY=0;exitDx=0;exitDy=0;" parent="1" source="DmxvdTNKo9QtdADaN_bz-4" target="DmxvdTNKo9QtdADaN_bz-3" edge="1">
          <mxGeometry relative="1" as="geometry">
            <mxPoint x="340" y="440" as="sourcePoint" />
            <mxPoint x="374" y="110" as="targetPoint" />
          </mxGeometry>
        </mxCell>
        <mxCell id="DmxvdTNKo9QtdADaN_bz-11" value="" style="endArrow=none;html=1;rounded=0;entryX=0.5;entryY=1;entryDx=0;entryDy=0;exitX=0.5;exitY=0;exitDx=0;exitDy=0;" parent="1" source="DmxvdTNKo9QtdADaN_bz-5" target="DmxvdTNKo9QtdADaN_bz-3" edge="1">
          <mxGeometry relative="1" as="geometry">
            <mxPoint x="390" y="220" as="sourcePoint" />
            <mxPoint x="1234" y="130" as="targetPoint" />
          </mxGeometry>
        </mxCell>
        <mxCell id="DmxvdTNKo9QtdADaN_bz-12" value="" style="endArrow=none;html=1;rounded=0;entryX=0.5;entryY=1;entryDx=0;entryDy=0;exitX=0.5;exitY=0;exitDx=0;exitDy=0;" parent="1" source="DmxvdTNKo9QtdADaN_bz-2" target="DmxvdTNKo9QtdADaN_bz-3" edge="1">
          <mxGeometry relative="1" as="geometry">
            <mxPoint x="400" y="240" as="sourcePoint" />
            <mxPoint x="1244" y="150" as="targetPoint" />
          </mxGeometry>
        </mxCell>
        <mxCell id="DmxvdTNKo9QtdADaN_bz-13" value="" style="endArrow=none;html=1;rounded=0;entryX=0.5;entryY=1;entryDx=0;entryDy=0;exitX=0.5;exitY=0;exitDx=0;exitDy=0;" parent="1" source="DmxvdTNKo9QtdADaN_bz-8" target="DmxvdTNKo9QtdADaN_bz-3" edge="1">
          <mxGeometry relative="1" as="geometry">
            <mxPoint x="450" y="220" as="sourcePoint" />
            <mxPoint x="1294" y="130" as="targetPoint" />
          </mxGeometry>
        </mxCell>
        <mxCell id="DmxvdTNKo9QtdADaN_bz-14" value="" style="endArrow=none;html=1;rounded=0;entryX=0.5;entryY=0;entryDx=0;entryDy=0;exitX=0.5;exitY=1;exitDx=0;exitDy=0;" parent="1" source="DmxvdTNKo9QtdADaN_bz-3" target="DmxvdTNKo9QtdADaN_bz-6" edge="1">
          <mxGeometry relative="1" as="geometry">
            <mxPoint x="650" y="190" as="sourcePoint" />
            <mxPoint x="1494" y="100" as="targetPoint" />
          </mxGeometry>
        </mxCell>
        <mxCell id="DmxvdTNKo9QtdADaN_bz-15" value="" style="endArrow=none;html=1;rounded=0;entryX=0.5;entryY=0;entryDx=0;entryDy=0;exitX=0.5;exitY=1;exitDx=0;exitDy=0;" parent="1" source="DmxvdTNKo9QtdADaN_bz-3" target="DmxvdTNKo9QtdADaN_bz-7" edge="1">
          <mxGeometry relative="1" as="geometry">
            <mxPoint x="640" y="210" as="sourcePoint" />
            <mxPoint x="1484" y="120" as="targetPoint" />
          </mxGeometry>
        </mxCell>
        <mxCell id="DmxvdTNKo9QtdADaN_bz-16" value="Ekod" style="shape=rhombus;perimeter=rhombusPerimeter;whiteSpace=wrap;html=1;align=center;fontStyle=4" parent="1" vertex="1">
          <mxGeometry x="-720" y="220" width="80" height="60" as="geometry" />
        </mxCell>
        <mxCell id="DmxvdTNKo9QtdADaN_bz-17" value="Nev" style="ellipse;whiteSpace=wrap;html=1;align=center;" parent="1" vertex="1">
          <mxGeometry x="-660" y="320" width="70" height="40" as="geometry" />
        </mxCell>
        <mxCell id="DmxvdTNKo9QtdADaN_bz-18" value="Cim" style="ellipse;whiteSpace=wrap;html=1;align=center;" parent="1" vertex="1">
          <mxGeometry x="-545" y="320" width="70" height="40" as="geometry" />
        </mxCell>
        <mxCell id="DmxvdTNKo9QtdADaN_bz-19" value="Csillag" style="ellipse;whiteSpace=wrap;html=1;align=center;" parent="1" vertex="1">
          <mxGeometry x="-430" y="320" width="70" height="40" as="geometry" />
        </mxCell>
        <mxCell id="DmxvdTNKo9QtdADaN_bz-20" value="Varos" style="ellipse;whiteSpace=wrap;html=1;align=center;" parent="1" vertex="1">
          <mxGeometry x="-630" y="410" width="70" height="40" as="geometry" />
        </mxCell>
        <mxCell id="DmxvdTNKo9QtdADaN_bz-21" value="Utca" style="ellipse;whiteSpace=wrap;html=1;align=center;" parent="1" vertex="1">
          <mxGeometry x="-545" y="410" width="70" height="40" as="geometry" />
        </mxCell>
        <mxCell id="DmxvdTNKo9QtdADaN_bz-22" value="Hazszam" style="ellipse;whiteSpace=wrap;html=1;align=center;" parent="1" vertex="1">
          <mxGeometry x="-460" y="410" width="70" height="40" as="geometry" />
        </mxCell>
        <mxCell id="DmxvdTNKo9QtdADaN_bz-23" value="" style="whiteSpace=wrap;html=1;align=center;" parent="1" vertex="1">
          <mxGeometry x="-615" y="490" width="40" height="50" as="geometry" />
        </mxCell>
        <mxCell id="DmxvdTNKo9QtdADaN_bz-24" value="" style="whiteSpace=wrap;html=1;align=center;" parent="1" vertex="1">
          <mxGeometry x="-531.25" y="490" width="42.5" height="50" as="geometry" />
        </mxCell>
        <mxCell id="DmxvdTNKo9QtdADaN_bz-25" value="" style="whiteSpace=wrap;html=1;align=center;" parent="1" vertex="1">
          <mxGeometry x="-445" y="490" width="40" height="50" as="geometry" />
        </mxCell>
        <mxCell id="DmxvdTNKo9QtdADaN_bz-26" value="" style="endArrow=none;html=1;rounded=0;entryX=0;entryY=1;entryDx=0;entryDy=0;exitX=1;exitY=0;exitDx=0;exitDy=0;" parent="1" source="DmxvdTNKo9QtdADaN_bz-16" target="DmxvdTNKo9QtdADaN_bz-4" edge="1">
          <mxGeometry relative="1" as="geometry">
            <mxPoint x="-90" y="400" as="sourcePoint" />
            <mxPoint x="70" y="400" as="targetPoint" />
          </mxGeometry>
        </mxCell>
        <mxCell id="DmxvdTNKo9QtdADaN_bz-28" value="" style="endArrow=none;html=1;rounded=0;entryX=0.5;entryY=1;entryDx=0;entryDy=0;exitX=0.5;exitY=0;exitDx=0;exitDy=0;" parent="1" source="DmxvdTNKo9QtdADaN_bz-17" target="DmxvdTNKo9QtdADaN_bz-4" edge="1">
          <mxGeometry relative="1" as="geometry">
            <mxPoint x="-520" y="261" as="sourcePoint" />
            <mxPoint x="-405" y="240" as="targetPoint" />
          </mxGeometry>
        </mxCell>
        <mxCell id="DmxvdTNKo9QtdADaN_bz-29" value="" style="endArrow=none;html=1;rounded=0;entryX=0.5;entryY=1;entryDx=0;entryDy=0;exitX=0.5;exitY=0;exitDx=0;exitDy=0;" parent="1" source="DmxvdTNKo9QtdADaN_bz-18" target="DmxvdTNKo9QtdADaN_bz-4" edge="1">
          <mxGeometry relative="1" as="geometry">
            <mxPoint x="-500" y="301" as="sourcePoint" />
            <mxPoint x="-385" y="280" as="targetPoint" />
          </mxGeometry>
        </mxCell>
        <mxCell id="DmxvdTNKo9QtdADaN_bz-30" value="" style="endArrow=none;html=1;rounded=0;entryX=0.5;entryY=1;entryDx=0;entryDy=0;exitX=0.5;exitY=0;exitDx=0;exitDy=0;" parent="1" source="DmxvdTNKo9QtdADaN_bz-19" target="DmxvdTNKo9QtdADaN_bz-4" edge="1">
          <mxGeometry relative="1" as="geometry">
            <mxPoint x="-470" y="271" as="sourcePoint" />
            <mxPoint x="-355" y="250" as="targetPoint" />
          </mxGeometry>
        </mxCell>
        <mxCell id="DmxvdTNKo9QtdADaN_bz-31" value="" style="endArrow=none;html=1;rounded=0;entryX=0.5;entryY=1;entryDx=0;entryDy=0;exitX=0.5;exitY=0;exitDx=0;exitDy=0;" parent="1" source="DmxvdTNKo9QtdADaN_bz-20" target="DmxvdTNKo9QtdADaN_bz-18" edge="1">
          <mxGeometry relative="1" as="geometry">
            <mxPoint x="-520" y="401" as="sourcePoint" />
            <mxPoint x="-405" y="380" as="targetPoint" />
          </mxGeometry>
        </mxCell>
        <mxCell id="DmxvdTNKo9QtdADaN_bz-32" value="" style="endArrow=none;html=1;rounded=0;entryX=0.5;entryY=1;entryDx=0;entryDy=0;exitX=0.5;exitY=0;exitDx=0;exitDy=0;" parent="1" source="DmxvdTNKo9QtdADaN_bz-21" target="DmxvdTNKo9QtdADaN_bz-18" edge="1">
          <mxGeometry relative="1" as="geometry">
            <mxPoint x="-500" y="391" as="sourcePoint" />
            <mxPoint x="-385" y="370" as="targetPoint" />
          </mxGeometry>
        </mxCell>
        <mxCell id="DmxvdTNKo9QtdADaN_bz-33" value="" style="endArrow=none;html=1;rounded=0;entryX=0.5;entryY=0;entryDx=0;entryDy=0;exitX=0.5;exitY=1;exitDx=0;exitDy=0;" parent="1" source="DmxvdTNKo9QtdADaN_bz-18" target="DmxvdTNKo9QtdADaN_bz-22" edge="1">
          <mxGeometry relative="1" as="geometry">
            <mxPoint x="-480" y="391" as="sourcePoint" />
            <mxPoint x="-365" y="370" as="targetPoint" />
          </mxGeometry>
        </mxCell>
        <mxCell id="DmxvdTNKo9QtdADaN_bz-34" value="" style="endArrow=none;html=1;rounded=0;entryX=0.5;entryY=1;entryDx=0;entryDy=0;exitX=0.5;exitY=0;exitDx=0;exitDy=0;" parent="1" source="DmxvdTNKo9QtdADaN_bz-23" target="DmxvdTNKo9QtdADaN_bz-20" edge="1">
          <mxGeometry relative="1" as="geometry">
            <mxPoint x="-590" y="481" as="sourcePoint" />
            <mxPoint x="-475" y="460" as="targetPoint" />
          </mxGeometry>
        </mxCell>
        <mxCell id="DmxvdTNKo9QtdADaN_bz-35" value="" style="endArrow=none;html=1;rounded=0;entryX=0.5;entryY=1;entryDx=0;entryDy=0;exitX=0.5;exitY=0;exitDx=0;exitDy=0;" parent="1" source="DmxvdTNKo9QtdADaN_bz-24" target="DmxvdTNKo9QtdADaN_bz-21" edge="1">
          <mxGeometry relative="1" as="geometry">
            <mxPoint x="-530" y="481" as="sourcePoint" />
            <mxPoint x="-415" y="460" as="targetPoint" />
          </mxGeometry>
        </mxCell>
        <mxCell id="DmxvdTNKo9QtdADaN_bz-36" value="" style="endArrow=none;html=1;rounded=0;entryX=0.5;entryY=1;entryDx=0;entryDy=0;exitX=0.5;exitY=0;exitDx=0;exitDy=0;" parent="1" source="DmxvdTNKo9QtdADaN_bz-25" target="DmxvdTNKo9QtdADaN_bz-22" edge="1">
          <mxGeometry relative="1" as="geometry">
            <mxPoint x="-450" y="481" as="sourcePoint" />
            <mxPoint x="-335" y="460" as="targetPoint" />
          </mxGeometry>
        </mxCell>
        <mxCell id="DmxvdTNKo9QtdADaN_bz-37" value="Fkod" style="shape=rhombus;perimeter=rhombusPerimeter;whiteSpace=wrap;html=1;align=center;fontStyle=4" parent="1" vertex="1">
          <mxGeometry x="-320" y="220" width="80" height="60" as="geometry" />
        </mxCell>
        <mxCell id="DmxvdTNKo9QtdADaN_bz-38" value="" style="endArrow=none;html=1;rounded=0;entryX=0;entryY=1;entryDx=0;entryDy=0;exitX=1;exitY=0;exitDx=0;exitDy=0;" parent="1" source="DmxvdTNKo9QtdADaN_bz-37" target="DmxvdTNKo9QtdADaN_bz-5" edge="1">
          <mxGeometry relative="1" as="geometry">
            <mxPoint x="-90" y="400" as="sourcePoint" />
            <mxPoint x="70" y="400" as="targetPoint" />
          </mxGeometry>
        </mxCell>
        <mxCell id="DmxvdTNKo9QtdADaN_bz-39" value="Nev" style="ellipse;whiteSpace=wrap;html=1;align=center;" parent="1" vertex="1">
          <mxGeometry x="-260" y="320" width="70" height="40" as="geometry" />
        </mxCell>
        <mxCell id="DmxvdTNKo9QtdADaN_bz-40" value="Eletkor" style="ellipse;whiteSpace=wrap;html=1;align=center;" parent="1" vertex="1">
          <mxGeometry x="-165" y="320" width="70" height="40" as="geometry" />
        </mxCell>
        <mxCell id="DmxvdTNKo9QtdADaN_bz-42" value="Vegzettseg" style="ellipse;shape=doubleEllipse;margin=3;whiteSpace=wrap;html=1;align=center;fillColor=#707070;" parent="1" vertex="1">
          <mxGeometry x="-70" y="320" width="70" height="40" as="geometry" />
        </mxCell>
        <mxCell id="DmxvdTNKo9QtdADaN_bz-43" value="" style="whiteSpace=wrap;html=1;align=center;" parent="1" vertex="1">
          <mxGeometry x="-245" y="400" width="40" height="50" as="geometry" />
        </mxCell>
        <mxCell id="DmxvdTNKo9QtdADaN_bz-44" value="" style="whiteSpace=wrap;html=1;align=center;" parent="1" vertex="1">
          <mxGeometry x="-150" y="400" width="40" height="50" as="geometry" />
        </mxCell>
        <mxCell id="DmxvdTNKo9QtdADaN_bz-45" value="" style="whiteSpace=wrap;html=1;align=center;" parent="1" vertex="1">
          <mxGeometry x="-55" y="400" width="40" height="50" as="geometry" />
        </mxCell>
        <mxCell id="DmxvdTNKo9QtdADaN_bz-46" value="" style="endArrow=none;html=1;rounded=0;entryX=0.5;entryY=1;entryDx=0;entryDy=0;exitX=0.5;exitY=0;exitDx=0;exitDy=0;" parent="1" source="DmxvdTNKo9QtdADaN_bz-39" target="DmxvdTNKo9QtdADaN_bz-5" edge="1">
          <mxGeometry relative="1" as="geometry">
            <mxPoint x="-150" y="261" as="sourcePoint" />
            <mxPoint x="-55" y="240" as="targetPoint" />
          </mxGeometry>
        </mxCell>
        <mxCell id="DmxvdTNKo9QtdADaN_bz-47" value="" style="endArrow=none;html=1;rounded=0;entryX=0.5;entryY=1;entryDx=0;entryDy=0;exitX=0.5;exitY=0;exitDx=0;exitDy=0;" parent="1" source="DmxvdTNKo9QtdADaN_bz-40" target="DmxvdTNKo9QtdADaN_bz-5" edge="1">
          <mxGeometry relative="1" as="geometry">
            <mxPoint x="-130" y="301" as="sourcePoint" />
            <mxPoint x="-35" y="280" as="targetPoint" />
          </mxGeometry>
        </mxCell>
        <mxCell id="DmxvdTNKo9QtdADaN_bz-48" value="" style="endArrow=none;html=1;rounded=0;entryX=0.5;entryY=0;entryDx=0;entryDy=0;exitX=0.5;exitY=1;exitDx=0;exitDy=0;" parent="1" source="DmxvdTNKo9QtdADaN_bz-5" target="DmxvdTNKo9QtdADaN_bz-42" edge="1">
          <mxGeometry relative="1" as="geometry">
            <mxPoint x="-90" y="281" as="sourcePoint" />
            <mxPoint x="5" y="260" as="targetPoint" />
          </mxGeometry>
        </mxCell>
        <mxCell id="DmxvdTNKo9QtdADaN_bz-49" value="" style="endArrow=none;html=1;rounded=0;entryX=0.5;entryY=1;entryDx=0;entryDy=0;exitX=0.5;exitY=0;exitDx=0;exitDy=0;" parent="1" source="DmxvdTNKo9QtdADaN_bz-43" target="DmxvdTNKo9QtdADaN_bz-39" edge="1">
          <mxGeometry relative="1" as="geometry">
            <mxPoint x="-220" y="401" as="sourcePoint" />
            <mxPoint x="-125" y="380" as="targetPoint" />
          </mxGeometry>
        </mxCell>
        <mxCell id="DmxvdTNKo9QtdADaN_bz-50" value="" style="endArrow=none;html=1;rounded=0;entryX=0.5;entryY=1;entryDx=0;entryDy=0;exitX=0.5;exitY=0;exitDx=0;exitDy=0;" parent="1" source="DmxvdTNKo9QtdADaN_bz-44" target="DmxvdTNKo9QtdADaN_bz-40" edge="1">
          <mxGeometry relative="1" as="geometry">
            <mxPoint x="-140" y="391" as="sourcePoint" />
            <mxPoint x="-45" y="370" as="targetPoint" />
          </mxGeometry>
        </mxCell>
        <mxCell id="DmxvdTNKo9QtdADaN_bz-51" value="" style="endArrow=none;html=1;rounded=0;entryX=0.5;entryY=1;entryDx=0;entryDy=0;exitX=0.5;exitY=0;exitDx=0;exitDy=0;" parent="1" source="DmxvdTNKo9QtdADaN_bz-45" target="DmxvdTNKo9QtdADaN_bz-42" edge="1">
          <mxGeometry relative="1" as="geometry">
            <mxPoint x="-50" y="391" as="sourcePoint" />
            <mxPoint x="45" y="370" as="targetPoint" />
          </mxGeometry>
        </mxCell>
        <mxCell id="DmxvdTNKo9QtdADaN_bz-59" value="" style="endArrow=none;html=1;rounded=0;entryX=1;entryY=1;entryDx=0;entryDy=0;exitX=0;exitY=0;exitDx=0;exitDy=0;" parent="1" source="DmxvdTNKo9QtdADaN_bz-60" target="DmxvdTNKo9QtdADaN_bz-5" edge="1">
          <mxGeometry relative="1" as="geometry">
            <mxPoint x="20" y="235" as="sourcePoint" />
            <mxPoint x="15" y="230" as="targetPoint" />
          </mxGeometry>
        </mxCell>
        <mxCell id="qB4JOx8IL-BIcfQESZDg-21" style="edgeStyle=orthogonalEdgeStyle;rounded=0;orthogonalLoop=1;jettySize=auto;html=1;exitX=0.5;exitY=1;exitDx=0;exitDy=0;entryX=0.5;entryY=1;entryDx=0;entryDy=0;dashed=1;" edge="1" parent="1" source="DmxvdTNKo9QtdADaN_bz-60" target="DmxvdTNKo9QtdADaN_bz-16">
          <mxGeometry relative="1" as="geometry">
            <Array as="points">
              <mxPoint x="35" y="560" />
              <mxPoint x="-680" y="560" />
            </Array>
          </mxGeometry>
        </mxCell>
        <mxCell id="DmxvdTNKo9QtdADaN_bz-60" value="E_F" style="shape=rhombus;perimeter=rhombusPerimeter;whiteSpace=wrap;html=1;align=center;" parent="1" vertex="1">
          <mxGeometry x="-10" y="220" width="90" height="60" as="geometry" />
        </mxCell>
        <mxCell id="qB4JOx8IL-BIcfQESZDg-1" value="SzKod" style="shape=rhombus;perimeter=rhombusPerimeter;whiteSpace=wrap;html=1;align=center;fontStyle=4" vertex="1" parent="1">
          <mxGeometry x="130" y="220" width="90" height="60" as="geometry" />
        </mxCell>
        <mxCell id="qB4JOx8IL-BIcfQESZDg-2" value="Nev" style="ellipse;whiteSpace=wrap;html=1;align=center;" vertex="1" parent="1">
          <mxGeometry x="215" y="310" width="70" height="40" as="geometry" />
        </mxCell>
        <mxCell id="qB4JOx8IL-BIcfQESZDg-3" value="Reszleg" style="ellipse;whiteSpace=wrap;html=1;align=center;" vertex="1" parent="1">
          <mxGeometry x="300" y="310" width="70" height="40" as="geometry" />
        </mxCell>
        <mxCell id="qB4JOx8IL-BIcfQESZDg-5" value="Vegzettseg" style="ellipse;shape=doubleEllipse;margin=3;whiteSpace=wrap;html=1;align=center;fillColor=#707070;" vertex="1" parent="1">
          <mxGeometry x="385" y="310" width="75" height="40" as="geometry" />
        </mxCell>
        <mxCell id="qB4JOx8IL-BIcfQESZDg-6" value="" style="whiteSpace=wrap;html=1;align=center;" vertex="1" parent="1">
          <mxGeometry x="230" y="400" width="40" height="50" as="geometry" />
        </mxCell>
        <mxCell id="qB4JOx8IL-BIcfQESZDg-7" value="" style="whiteSpace=wrap;html=1;align=center;" vertex="1" parent="1">
          <mxGeometry x="315" y="400" width="40" height="50" as="geometry" />
        </mxCell>
        <mxCell id="qB4JOx8IL-BIcfQESZDg-8" value="" style="whiteSpace=wrap;html=1;align=center;" vertex="1" parent="1">
          <mxGeometry x="402.5" y="400" width="40" height="50" as="geometry" />
        </mxCell>
        <mxCell id="qB4JOx8IL-BIcfQESZDg-9" value="" style="endArrow=none;html=1;rounded=0;entryX=0.5;entryY=1;entryDx=0;entryDy=0;exitX=0.5;exitY=0;exitDx=0;exitDy=0;" edge="1" parent="1" source="qB4JOx8IL-BIcfQESZDg-6" target="qB4JOx8IL-BIcfQESZDg-2">
          <mxGeometry relative="1" as="geometry">
            <mxPoint x="235" y="410" as="sourcePoint" />
            <mxPoint x="235" y="370" as="targetPoint" />
          </mxGeometry>
        </mxCell>
        <mxCell id="qB4JOx8IL-BIcfQESZDg-10" value="" style="endArrow=none;html=1;rounded=0;entryX=0.5;entryY=1;entryDx=0;entryDy=0;exitX=0.5;exitY=0;exitDx=0;exitDy=0;" edge="1" parent="1" source="qB4JOx8IL-BIcfQESZDg-7" target="qB4JOx8IL-BIcfQESZDg-3">
          <mxGeometry relative="1" as="geometry">
            <mxPoint x="325" y="400" as="sourcePoint" />
            <mxPoint x="325" y="360" as="targetPoint" />
          </mxGeometry>
        </mxCell>
        <mxCell id="qB4JOx8IL-BIcfQESZDg-11" value="" style="endArrow=none;html=1;rounded=0;entryX=0.5;entryY=1;entryDx=0;entryDy=0;exitX=0.5;exitY=0;exitDx=0;exitDy=0;" edge="1" parent="1" source="qB4JOx8IL-BIcfQESZDg-8" target="qB4JOx8IL-BIcfQESZDg-5">
          <mxGeometry relative="1" as="geometry">
            <mxPoint x="385" y="420" as="sourcePoint" />
            <mxPoint x="385" y="380" as="targetPoint" />
          </mxGeometry>
        </mxCell>
        <mxCell id="qB4JOx8IL-BIcfQESZDg-12" value="" style="endArrow=none;html=1;rounded=0;entryX=0;entryY=0.5;entryDx=0;entryDy=0;exitX=1;exitY=0;exitDx=0;exitDy=0;" edge="1" parent="1" source="qB4JOx8IL-BIcfQESZDg-1" target="DmxvdTNKo9QtdADaN_bz-2">
          <mxGeometry relative="1" as="geometry">
            <mxPoint x="295" y="270" as="sourcePoint" />
            <mxPoint x="295" y="230" as="targetPoint" />
          </mxGeometry>
        </mxCell>
        <mxCell id="qB4JOx8IL-BIcfQESZDg-13" value="" style="endArrow=none;html=1;rounded=0;entryX=0.5;entryY=1;entryDx=0;entryDy=0;exitX=0.5;exitY=0;exitDx=0;exitDy=0;" edge="1" parent="1" source="qB4JOx8IL-BIcfQESZDg-2" target="DmxvdTNKo9QtdADaN_bz-2">
          <mxGeometry relative="1" as="geometry">
            <mxPoint x="320" y="280" as="sourcePoint" />
            <mxPoint x="320" y="240" as="targetPoint" />
          </mxGeometry>
        </mxCell>
        <mxCell id="qB4JOx8IL-BIcfQESZDg-14" value="" style="endArrow=none;html=1;rounded=0;entryX=0.5;entryY=1;entryDx=0;entryDy=0;exitX=0.5;exitY=0;exitDx=0;exitDy=0;" edge="1" parent="1" source="qB4JOx8IL-BIcfQESZDg-3" target="DmxvdTNKo9QtdADaN_bz-2">
          <mxGeometry relative="1" as="geometry">
            <mxPoint x="320" y="290" as="sourcePoint" />
            <mxPoint x="320" y="250" as="targetPoint" />
          </mxGeometry>
        </mxCell>
        <mxCell id="qB4JOx8IL-BIcfQESZDg-15" value="" style="endArrow=none;html=1;rounded=0;entryX=0.5;entryY=1;entryDx=0;entryDy=0;exitX=0.5;exitY=0;exitDx=0;exitDy=0;" edge="1" parent="1" source="qB4JOx8IL-BIcfQESZDg-5" target="DmxvdTNKo9QtdADaN_bz-2">
          <mxGeometry relative="1" as="geometry">
            <mxPoint x="370" y="290" as="sourcePoint" />
            <mxPoint x="370" y="250" as="targetPoint" />
          </mxGeometry>
        </mxCell>
        <mxCell id="qB4JOx8IL-BIcfQESZDg-22" style="edgeStyle=orthogonalEdgeStyle;rounded=0;orthogonalLoop=1;jettySize=auto;html=1;exitX=0.5;exitY=1;exitDx=0;exitDy=0;entryX=0;entryY=1;entryDx=0;entryDy=0;dashed=1;" edge="1" parent="1" source="qB4JOx8IL-BIcfQESZDg-16" target="DmxvdTNKo9QtdADaN_bz-16">
          <mxGeometry relative="1" as="geometry">
            <Array as="points">
              <mxPoint x="505" y="600" />
              <mxPoint x="-700" y="600" />
            </Array>
          </mxGeometry>
        </mxCell>
        <mxCell id="qB4JOx8IL-BIcfQESZDg-16" value="E_SZ" style="shape=rhombus;perimeter=rhombusPerimeter;whiteSpace=wrap;html=1;align=center;" vertex="1" parent="1">
          <mxGeometry x="460" y="220" width="90" height="60" as="geometry" />
        </mxCell>
        <mxCell id="qB4JOx8IL-BIcfQESZDg-17" value="" style="endArrow=none;html=1;rounded=0;entryX=0;entryY=0;entryDx=0;entryDy=0;exitX=1;exitY=0.5;exitDx=0;exitDy=0;" edge="1" parent="1" source="DmxvdTNKo9QtdADaN_bz-2" target="qB4JOx8IL-BIcfQESZDg-16">
          <mxGeometry relative="1" as="geometry">
            <mxPoint x="410" y="245" as="sourcePoint" />
            <mxPoint x="498" y="210" as="targetPoint" />
          </mxGeometry>
        </mxCell>
        <mxCell id="qB4JOx8IL-BIcfQESZDg-24" value="GyKod" style="shape=rhombus;perimeter=rhombusPerimeter;whiteSpace=wrap;html=1;align=center;fontStyle=4" vertex="1" parent="1">
          <mxGeometry x="600" y="220" width="90" height="60" as="geometry" />
        </mxCell>
        <mxCell id="qB4JOx8IL-BIcfQESZDg-25" value="Nev" style="ellipse;whiteSpace=wrap;html=1;align=center;" vertex="1" parent="1">
          <mxGeometry x="670" y="310" width="70" height="40" as="geometry" />
        </mxCell>
        <mxCell id="qB4JOx8IL-BIcfQESZDg-26" value="Gyakorlat" style="ellipse;whiteSpace=wrap;html=1;align=center;" vertex="1" parent="1">
          <mxGeometry x="765" y="310" width="70" height="40" as="geometry" />
        </mxCell>
        <mxCell id="qB4JOx8IL-BIcfQESZDg-28" value="Muszak" style="ellipse;shape=doubleEllipse;margin=3;whiteSpace=wrap;html=1;align=center;fillColor=#707070;" vertex="1" parent="1">
          <mxGeometry x="850" y="310" width="75" height="40" as="geometry" />
        </mxCell>
        <mxCell id="qB4JOx8IL-BIcfQESZDg-29" value="Kezdete" style="ellipse;whiteSpace=wrap;html=1;align=center;" vertex="1" parent="1">
          <mxGeometry x="720" y="450" width="70" height="40" as="geometry" />
        </mxCell>
        <mxCell id="qB4JOx8IL-BIcfQESZDg-30" value="Idotartama" style="ellipse;whiteSpace=wrap;html=1;align=center;" vertex="1" parent="1">
          <mxGeometry x="810" y="450" width="70" height="40" as="geometry" />
        </mxCell>
        <mxCell id="qB4JOx8IL-BIcfQESZDg-48" style="edgeStyle=orthogonalEdgeStyle;rounded=0;orthogonalLoop=1;jettySize=auto;html=1;exitX=0.5;exitY=1;exitDx=0;exitDy=0;entryX=0;entryY=0.5;entryDx=0;entryDy=0;dashed=1;" edge="1" parent="1" source="qB4JOx8IL-BIcfQESZDg-31" target="DmxvdTNKo9QtdADaN_bz-16">
          <mxGeometry relative="1" as="geometry">
            <Array as="points">
              <mxPoint x="970" y="640" />
              <mxPoint x="-740" y="640" />
              <mxPoint x="-740" y="250" />
            </Array>
          </mxGeometry>
        </mxCell>
        <mxCell id="qB4JOx8IL-BIcfQESZDg-31" value="E_GY" style="shape=rhombus;perimeter=rhombusPerimeter;whiteSpace=wrap;html=1;align=center;" vertex="1" parent="1">
          <mxGeometry x="925" y="220" width="90" height="60" as="geometry" />
        </mxCell>
        <mxCell id="qB4JOx8IL-BIcfQESZDg-33" value="" style="endArrow=none;html=1;rounded=0;entryX=0.5;entryY=1;entryDx=0;entryDy=0;exitX=0.5;exitY=0;exitDx=0;exitDy=0;" edge="1" parent="1" source="qB4JOx8IL-BIcfQESZDg-25" target="DmxvdTNKo9QtdADaN_bz-8">
          <mxGeometry relative="1" as="geometry">
            <mxPoint x="858" y="350" as="sourcePoint" />
            <mxPoint x="770" y="260" as="targetPoint" />
          </mxGeometry>
        </mxCell>
        <mxCell id="qB4JOx8IL-BIcfQESZDg-34" value="" style="endArrow=none;html=1;rounded=0;exitX=0.5;exitY=0;exitDx=0;exitDy=0;entryX=0.5;entryY=1;entryDx=0;entryDy=0;" edge="1" parent="1" source="qB4JOx8IL-BIcfQESZDg-26" target="DmxvdTNKo9QtdADaN_bz-8">
          <mxGeometry relative="1" as="geometry">
            <mxPoint x="888" y="340" as="sourcePoint" />
            <mxPoint x="790" y="220" as="targetPoint" />
          </mxGeometry>
        </mxCell>
        <mxCell id="qB4JOx8IL-BIcfQESZDg-35" value="" style="endArrow=none;html=1;rounded=0;entryX=0.5;entryY=1;entryDx=0;entryDy=0;exitX=0.5;exitY=0;exitDx=0;exitDy=0;" edge="1" parent="1" source="qB4JOx8IL-BIcfQESZDg-28" target="DmxvdTNKo9QtdADaN_bz-8">
          <mxGeometry relative="1" as="geometry">
            <mxPoint x="908" y="350" as="sourcePoint" />
            <mxPoint x="820" y="260" as="targetPoint" />
          </mxGeometry>
        </mxCell>
        <mxCell id="qB4JOx8IL-BIcfQESZDg-36" value="" style="endArrow=none;html=1;rounded=0;entryX=0.5;entryY=1;entryDx=0;entryDy=0;exitX=0.5;exitY=0;exitDx=0;exitDy=0;" edge="1" parent="1" source="qB4JOx8IL-BIcfQESZDg-29" target="qB4JOx8IL-BIcfQESZDg-26">
          <mxGeometry relative="1" as="geometry">
            <mxPoint x="868" y="450" as="sourcePoint" />
            <mxPoint x="780" y="360" as="targetPoint" />
          </mxGeometry>
        </mxCell>
        <mxCell id="qB4JOx8IL-BIcfQESZDg-37" value="" style="endArrow=none;html=1;rounded=0;entryX=0.5;entryY=1;entryDx=0;entryDy=0;exitX=0.5;exitY=0;exitDx=0;exitDy=0;" edge="1" parent="1" source="qB4JOx8IL-BIcfQESZDg-30" target="qB4JOx8IL-BIcfQESZDg-26">
          <mxGeometry relative="1" as="geometry">
            <mxPoint x="888" y="470" as="sourcePoint" />
            <mxPoint x="800" y="380" as="targetPoint" />
          </mxGeometry>
        </mxCell>
        <mxCell id="qB4JOx8IL-BIcfQESZDg-38" value="" style="endArrow=none;html=1;rounded=0;entryX=0;entryY=0.5;entryDx=0;entryDy=0;exitX=1;exitY=0;exitDx=0;exitDy=0;" edge="1" parent="1" source="qB4JOx8IL-BIcfQESZDg-24" target="DmxvdTNKo9QtdADaN_bz-8">
          <mxGeometry relative="1" as="geometry">
            <mxPoint x="828" y="330" as="sourcePoint" />
            <mxPoint x="740" y="240" as="targetPoint" />
          </mxGeometry>
        </mxCell>
        <mxCell id="qB4JOx8IL-BIcfQESZDg-39" value="" style="endArrow=none;html=1;rounded=0;entryX=1;entryY=0.5;entryDx=0;entryDy=0;exitX=0;exitY=0;exitDx=0;exitDy=0;" edge="1" parent="1" source="qB4JOx8IL-BIcfQESZDg-31" target="DmxvdTNKo9QtdADaN_bz-8">
          <mxGeometry relative="1" as="geometry">
            <mxPoint x="958" y="320" as="sourcePoint" />
            <mxPoint x="870" y="230" as="targetPoint" />
          </mxGeometry>
        </mxCell>
        <mxCell id="qB4JOx8IL-BIcfQESZDg-40" value="" style="whiteSpace=wrap;html=1;align=center;" vertex="1" parent="1">
          <mxGeometry x="685" y="380" width="40" height="50" as="geometry" />
        </mxCell>
        <mxCell id="qB4JOx8IL-BIcfQESZDg-41" value="" style="whiteSpace=wrap;html=1;align=center;" vertex="1" parent="1">
          <mxGeometry x="867.5" y="380" width="40" height="50" as="geometry" />
        </mxCell>
        <mxCell id="qB4JOx8IL-BIcfQESZDg-42" value="" style="whiteSpace=wrap;html=1;align=center;" vertex="1" parent="1">
          <mxGeometry x="735" y="535" width="40" height="50" as="geometry" />
        </mxCell>
        <mxCell id="qB4JOx8IL-BIcfQESZDg-43" value="" style="whiteSpace=wrap;html=1;align=center;" vertex="1" parent="1">
          <mxGeometry x="825" y="535" width="40" height="50" as="geometry" />
        </mxCell>
        <mxCell id="qB4JOx8IL-BIcfQESZDg-44" value="" style="endArrow=none;html=1;rounded=0;entryX=0.5;entryY=1;entryDx=0;entryDy=0;exitX=0.5;exitY=0;exitDx=0;exitDy=0;" edge="1" parent="1" source="qB4JOx8IL-BIcfQESZDg-40" target="qB4JOx8IL-BIcfQESZDg-25">
          <mxGeometry relative="1" as="geometry">
            <mxPoint x="710" y="450" as="sourcePoint" />
            <mxPoint x="755" y="350" as="targetPoint" />
          </mxGeometry>
        </mxCell>
        <mxCell id="qB4JOx8IL-BIcfQESZDg-45" value="" style="endArrow=none;html=1;rounded=0;entryX=0.5;entryY=1;entryDx=0;entryDy=0;exitX=0.5;exitY=0;exitDx=0;exitDy=0;" edge="1" parent="1" source="qB4JOx8IL-BIcfQESZDg-41" target="qB4JOx8IL-BIcfQESZDg-28">
          <mxGeometry relative="1" as="geometry">
            <mxPoint x="890" y="470" as="sourcePoint" />
            <mxPoint x="935" y="370" as="targetPoint" />
          </mxGeometry>
        </mxCell>
        <mxCell id="qB4JOx8IL-BIcfQESZDg-46" value="" style="endArrow=none;html=1;rounded=0;entryX=0.5;entryY=1;entryDx=0;entryDy=0;exitX=0.5;exitY=0;exitDx=0;exitDy=0;" edge="1" parent="1" source="qB4JOx8IL-BIcfQESZDg-42" target="qB4JOx8IL-BIcfQESZDg-29">
          <mxGeometry relative="1" as="geometry">
            <mxPoint x="760" y="610" as="sourcePoint" />
            <mxPoint x="805" y="510" as="targetPoint" />
          </mxGeometry>
        </mxCell>
        <mxCell id="qB4JOx8IL-BIcfQESZDg-47" value="" style="endArrow=none;html=1;rounded=0;entryX=0.5;entryY=1;entryDx=0;entryDy=0;exitX=0.5;exitY=0;exitDx=0;exitDy=0;" edge="1" parent="1" source="qB4JOx8IL-BIcfQESZDg-43" target="qB4JOx8IL-BIcfQESZDg-30">
          <mxGeometry relative="1" as="geometry">
            <mxPoint x="850" y="590" as="sourcePoint" />
            <mxPoint x="895" y="490" as="targetPoint" />
          </mxGeometry>
        </mxCell>
        <mxCell id="qB4JOx8IL-BIcfQESZDg-49" value="VKod" style="shape=rhombus;perimeter=rhombusPerimeter;whiteSpace=wrap;html=1;align=center;fontStyle=4" vertex="1" parent="1">
          <mxGeometry x="1060" y="220" width="90" height="60" as="geometry" />
        </mxCell>
        <mxCell id="qB4JOx8IL-BIcfQESZDg-50" value="Nev" style="ellipse;whiteSpace=wrap;html=1;align=center;" vertex="1" parent="1">
          <mxGeometry x="1130" y="290" width="70" height="40" as="geometry" />
        </mxCell>
        <mxCell id="qB4JOx8IL-BIcfQESZDg-51" value="Eletkor" style="ellipse;whiteSpace=wrap;html=1;align=center;" vertex="1" parent="1">
          <mxGeometry x="1215" y="290" width="70" height="40" as="geometry" />
        </mxCell>
        <mxCell id="qB4JOx8IL-BIcfQESZDg-52" value="Cim" style="ellipse;whiteSpace=wrap;html=1;align=center;" vertex="1" parent="1">
          <mxGeometry x="1390" y="290" width="70" height="40" as="geometry" />
        </mxCell>
        <mxCell id="qB4JOx8IL-BIcfQESZDg-53" value="Varos" style="ellipse;whiteSpace=wrap;html=1;align=center;" vertex="1" parent="1">
          <mxGeometry x="1300" y="400" width="70" height="40" as="geometry" />
        </mxCell>
        <mxCell id="qB4JOx8IL-BIcfQESZDg-54" value="Utca" style="ellipse;whiteSpace=wrap;html=1;align=center;" vertex="1" parent="1">
          <mxGeometry x="1390" y="400" width="70" height="40" as="geometry" />
        </mxCell>
        <mxCell id="qB4JOx8IL-BIcfQESZDg-55" value="Hazszam" style="ellipse;whiteSpace=wrap;html=1;align=center;" vertex="1" parent="1">
          <mxGeometry x="1480" y="400" width="70" height="40" as="geometry" />
        </mxCell>
        <mxCell id="qB4JOx8IL-BIcfQESZDg-56" value="" style="endArrow=none;html=1;rounded=0;entryX=0;entryY=0.5;entryDx=0;entryDy=0;exitX=1;exitY=0;exitDx=0;exitDy=0;" edge="1" parent="1" source="qB4JOx8IL-BIcfQESZDg-49" target="DmxvdTNKo9QtdADaN_bz-6">
          <mxGeometry relative="1" as="geometry">
            <mxPoint x="1268" y="310" as="sourcePoint" />
            <mxPoint x="1180" y="220" as="targetPoint" />
          </mxGeometry>
        </mxCell>
        <mxCell id="qB4JOx8IL-BIcfQESZDg-57" value="" style="endArrow=none;html=1;rounded=0;entryX=0.5;entryY=1;entryDx=0;entryDy=0;exitX=0.5;exitY=0;exitDx=0;exitDy=0;" edge="1" parent="1" source="qB4JOx8IL-BIcfQESZDg-50" target="DmxvdTNKo9QtdADaN_bz-6">
          <mxGeometry relative="1" as="geometry">
            <mxPoint x="1318" y="330" as="sourcePoint" />
            <mxPoint x="1230" y="240" as="targetPoint" />
          </mxGeometry>
        </mxCell>
        <mxCell id="qB4JOx8IL-BIcfQESZDg-58" value="" style="endArrow=none;html=1;rounded=0;entryX=0.5;entryY=1;entryDx=0;entryDy=0;exitX=0.5;exitY=0;exitDx=0;exitDy=0;" edge="1" parent="1" source="qB4JOx8IL-BIcfQESZDg-51" target="DmxvdTNKo9QtdADaN_bz-6">
          <mxGeometry relative="1" as="geometry">
            <mxPoint x="1378" y="340" as="sourcePoint" />
            <mxPoint x="1290" y="250" as="targetPoint" />
          </mxGeometry>
        </mxCell>
        <mxCell id="qB4JOx8IL-BIcfQESZDg-59" value="" style="endArrow=none;html=1;rounded=0;entryX=0.5;entryY=1;entryDx=0;entryDy=0;exitX=0.5;exitY=0;exitDx=0;exitDy=0;" edge="1" parent="1" source="qB4JOx8IL-BIcfQESZDg-52" target="DmxvdTNKo9QtdADaN_bz-6">
          <mxGeometry relative="1" as="geometry">
            <mxPoint x="1398" y="340" as="sourcePoint" />
            <mxPoint x="1310" y="250" as="targetPoint" />
          </mxGeometry>
        </mxCell>
        <mxCell id="qB4JOx8IL-BIcfQESZDg-60" value="" style="endArrow=none;html=1;rounded=0;entryX=0.5;entryY=1;entryDx=0;entryDy=0;exitX=0.5;exitY=0;exitDx=0;exitDy=0;" edge="1" parent="1" source="qB4JOx8IL-BIcfQESZDg-53" target="qB4JOx8IL-BIcfQESZDg-52">
          <mxGeometry relative="1" as="geometry">
            <mxPoint x="1488" y="430" as="sourcePoint" />
            <mxPoint x="1400" y="340" as="targetPoint" />
          </mxGeometry>
        </mxCell>
        <mxCell id="qB4JOx8IL-BIcfQESZDg-61" value="" style="endArrow=none;html=1;rounded=0;entryX=0.5;entryY=1;entryDx=0;entryDy=0;exitX=0.5;exitY=0;exitDx=0;exitDy=0;" edge="1" parent="1" source="qB4JOx8IL-BIcfQESZDg-54" target="qB4JOx8IL-BIcfQESZDg-52">
          <mxGeometry relative="1" as="geometry">
            <mxPoint x="1508" y="450" as="sourcePoint" />
            <mxPoint x="1420" y="360" as="targetPoint" />
          </mxGeometry>
        </mxCell>
        <mxCell id="qB4JOx8IL-BIcfQESZDg-62" value="" style="endArrow=none;html=1;rounded=0;entryX=0.5;entryY=1;entryDx=0;entryDy=0;exitX=0.5;exitY=0;exitDx=0;exitDy=0;" edge="1" parent="1" source="qB4JOx8IL-BIcfQESZDg-55" target="qB4JOx8IL-BIcfQESZDg-52">
          <mxGeometry relative="1" as="geometry">
            <mxPoint x="1528" y="450" as="sourcePoint" />
            <mxPoint x="1440" y="360" as="targetPoint" />
          </mxGeometry>
        </mxCell>
        <mxCell id="qB4JOx8IL-BIcfQESZDg-63" value="" style="whiteSpace=wrap;html=1;align=center;" vertex="1" parent="1">
          <mxGeometry x="1145" y="380" width="40" height="50" as="geometry" />
        </mxCell>
        <mxCell id="qB4JOx8IL-BIcfQESZDg-64" value="" style="whiteSpace=wrap;html=1;align=center;" vertex="1" parent="1">
          <mxGeometry x="1230" y="380" width="40" height="50" as="geometry" />
        </mxCell>
        <mxCell id="qB4JOx8IL-BIcfQESZDg-65" value="" style="whiteSpace=wrap;html=1;align=center;" vertex="1" parent="1">
          <mxGeometry x="1315" y="480" width="40" height="50" as="geometry" />
        </mxCell>
        <mxCell id="qB4JOx8IL-BIcfQESZDg-66" value="" style="whiteSpace=wrap;html=1;align=center;" vertex="1" parent="1">
          <mxGeometry x="1405" y="480" width="40" height="50" as="geometry" />
        </mxCell>
        <mxCell id="qB4JOx8IL-BIcfQESZDg-67" value="" style="whiteSpace=wrap;html=1;align=center;" vertex="1" parent="1">
          <mxGeometry x="1495" y="480" width="40" height="50" as="geometry" />
        </mxCell>
        <mxCell id="qB4JOx8IL-BIcfQESZDg-68" value="" style="endArrow=none;html=1;rounded=0;entryX=0.5;entryY=1;entryDx=0;entryDy=0;exitX=0.5;exitY=0;exitDx=0;exitDy=0;" edge="1" parent="1" source="qB4JOx8IL-BIcfQESZDg-63" target="qB4JOx8IL-BIcfQESZDg-50">
          <mxGeometry relative="1" as="geometry">
            <mxPoint x="1130" y="410" as="sourcePoint" />
            <mxPoint x="1220" y="340" as="targetPoint" />
          </mxGeometry>
        </mxCell>
        <mxCell id="qB4JOx8IL-BIcfQESZDg-69" value="" style="endArrow=none;html=1;rounded=0;entryX=0.5;entryY=1;entryDx=0;entryDy=0;exitX=0.5;exitY=0;exitDx=0;exitDy=0;" edge="1" parent="1" source="qB4JOx8IL-BIcfQESZDg-64" target="qB4JOx8IL-BIcfQESZDg-51">
          <mxGeometry relative="1" as="geometry">
            <mxPoint x="1250" y="420" as="sourcePoint" />
            <mxPoint x="1340" y="350" as="targetPoint" />
          </mxGeometry>
        </mxCell>
        <mxCell id="qB4JOx8IL-BIcfQESZDg-70" value="" style="endArrow=none;html=1;rounded=0;entryX=0.5;entryY=1;entryDx=0;entryDy=0;exitX=0.5;exitY=0;exitDx=0;exitDy=0;" edge="1" parent="1" source="qB4JOx8IL-BIcfQESZDg-65" target="qB4JOx8IL-BIcfQESZDg-53">
          <mxGeometry relative="1" as="geometry">
            <mxPoint x="1350" y="510" as="sourcePoint" />
            <mxPoint x="1440" y="440" as="targetPoint" />
          </mxGeometry>
        </mxCell>
        <mxCell id="qB4JOx8IL-BIcfQESZDg-71" value="" style="endArrow=none;html=1;rounded=0;entryX=0.5;entryY=1;entryDx=0;entryDy=0;exitX=0.5;exitY=0;exitDx=0;exitDy=0;" edge="1" parent="1" source="qB4JOx8IL-BIcfQESZDg-66" target="qB4JOx8IL-BIcfQESZDg-54">
          <mxGeometry relative="1" as="geometry">
            <mxPoint x="1450" y="520" as="sourcePoint" />
            <mxPoint x="1540" y="450" as="targetPoint" />
          </mxGeometry>
        </mxCell>
        <mxCell id="qB4JOx8IL-BIcfQESZDg-72" value="" style="endArrow=none;html=1;rounded=0;entryX=0.5;entryY=1;entryDx=0;entryDy=0;exitX=0.5;exitY=0;exitDx=0;exitDy=0;" edge="1" parent="1" source="qB4JOx8IL-BIcfQESZDg-67" target="qB4JOx8IL-BIcfQESZDg-55">
          <mxGeometry relative="1" as="geometry">
            <mxPoint x="1520" y="520" as="sourcePoint" />
            <mxPoint x="1610" y="450" as="targetPoint" />
          </mxGeometry>
        </mxCell>
        <mxCell id="qB4JOx8IL-BIcfQESZDg-87" style="edgeStyle=orthogonalEdgeStyle;rounded=0;orthogonalLoop=1;jettySize=auto;html=1;exitX=0.5;exitY=1;exitDx=0;exitDy=0;entryX=0.5;entryY=1;entryDx=0;entryDy=0;dashed=1;" edge="1" parent="1" source="qB4JOx8IL-BIcfQESZDg-73" target="qB4JOx8IL-BIcfQESZDg-49">
          <mxGeometry relative="1" as="geometry">
            <Array as="points">
              <mxPoint x="1609" y="640" />
              <mxPoint x="1105" y="640" />
            </Array>
          </mxGeometry>
        </mxCell>
        <mxCell id="qB4JOx8IL-BIcfQESZDg-73" value="E_V_V" style="shape=rhombus;perimeter=rhombusPerimeter;whiteSpace=wrap;html=1;align=center;" vertex="1" parent="1">
          <mxGeometry x="1564" y="220" width="90" height="60" as="geometry" />
        </mxCell>
        <mxCell id="qB4JOx8IL-BIcfQESZDg-88" style="edgeStyle=orthogonalEdgeStyle;rounded=0;orthogonalLoop=1;jettySize=auto;html=1;exitX=0.5;exitY=1;exitDx=0;exitDy=0;entryX=0;entryY=0;entryDx=0;entryDy=0;dashed=1;" edge="1" parent="1" source="qB4JOx8IL-BIcfQESZDg-74" target="DmxvdTNKo9QtdADaN_bz-16">
          <mxGeometry relative="1" as="geometry">
            <Array as="points">
              <mxPoint x="1985" y="680" />
              <mxPoint x="-770" y="680" />
              <mxPoint x="-770" y="235" />
            </Array>
          </mxGeometry>
        </mxCell>
        <mxCell id="qB4JOx8IL-BIcfQESZDg-74" value="E_V_E" style="shape=rhombus;perimeter=rhombusPerimeter;whiteSpace=wrap;html=1;align=center;" vertex="1" parent="1">
          <mxGeometry x="1940" y="220" width="90" height="60" as="geometry" />
        </mxCell>
        <mxCell id="qB4JOx8IL-BIcfQESZDg-76" value="Osszeg" style="ellipse;whiteSpace=wrap;html=1;align=center;" vertex="1" parent="1">
          <mxGeometry x="1710" y="300" width="70" height="40" as="geometry" />
        </mxCell>
        <mxCell id="qB4JOx8IL-BIcfQESZDg-77" value="Etel" style="ellipse;whiteSpace=wrap;html=1;align=center;" vertex="1" parent="1">
          <mxGeometry x="1820" y="300" width="70" height="40" as="geometry" />
        </mxCell>
        <mxCell id="qB4JOx8IL-BIcfQESZDg-79" value="" style="endArrow=none;html=1;rounded=0;entryX=0;entryY=0.5;entryDx=0;entryDy=0;exitX=1;exitY=0;exitDx=0;exitDy=0;" edge="1" parent="1" source="qB4JOx8IL-BIcfQESZDg-73" target="DmxvdTNKo9QtdADaN_bz-7">
          <mxGeometry relative="1" as="geometry">
            <mxPoint x="1915" y="300" as="sourcePoint" />
            <mxPoint x="1760" y="230" as="targetPoint" />
          </mxGeometry>
        </mxCell>
        <mxCell id="qB4JOx8IL-BIcfQESZDg-80" value="" style="endArrow=none;html=1;rounded=0;entryX=1;entryY=0.5;entryDx=0;entryDy=0;exitX=0;exitY=0;exitDx=0;exitDy=0;" edge="1" parent="1" source="qB4JOx8IL-BIcfQESZDg-74" target="DmxvdTNKo9QtdADaN_bz-7">
          <mxGeometry relative="1" as="geometry">
            <mxPoint x="2065" y="300" as="sourcePoint" />
            <mxPoint x="1910" y="230" as="targetPoint" />
          </mxGeometry>
        </mxCell>
        <mxCell id="qB4JOx8IL-BIcfQESZDg-81" value="" style="endArrow=none;html=1;rounded=0;entryX=0.5;entryY=1;entryDx=0;entryDy=0;exitX=0.5;exitY=0;exitDx=0;exitDy=0;" edge="1" parent="1" source="qB4JOx8IL-BIcfQESZDg-76" target="DmxvdTNKo9QtdADaN_bz-7">
          <mxGeometry relative="1" as="geometry">
            <mxPoint x="1945" y="330" as="sourcePoint" />
            <mxPoint x="1790" y="260" as="targetPoint" />
          </mxGeometry>
        </mxCell>
        <mxCell id="qB4JOx8IL-BIcfQESZDg-82" value="" style="endArrow=none;html=1;rounded=0;entryX=0.5;entryY=1;entryDx=0;entryDy=0;exitX=0.5;exitY=0;exitDx=0;exitDy=0;" edge="1" parent="1" source="qB4JOx8IL-BIcfQESZDg-77" target="DmxvdTNKo9QtdADaN_bz-7">
          <mxGeometry relative="1" as="geometry">
            <mxPoint x="1985" y="330" as="sourcePoint" />
            <mxPoint x="1830" y="260" as="targetPoint" />
          </mxGeometry>
        </mxCell>
        <mxCell id="qB4JOx8IL-BIcfQESZDg-83" value="" style="whiteSpace=wrap;html=1;align=center;" vertex="1" parent="1">
          <mxGeometry x="1725" y="390" width="40" height="50" as="geometry" />
        </mxCell>
        <mxCell id="qB4JOx8IL-BIcfQESZDg-84" value="" style="whiteSpace=wrap;html=1;align=center;" vertex="1" parent="1">
          <mxGeometry x="1835" y="390" width="40" height="50" as="geometry" />
        </mxCell>
        <mxCell id="qB4JOx8IL-BIcfQESZDg-85" value="" style="endArrow=none;html=1;rounded=0;entryX=0.5;entryY=1;entryDx=0;entryDy=0;exitX=0.5;exitY=0;exitDx=0;exitDy=0;" edge="1" parent="1" source="qB4JOx8IL-BIcfQESZDg-83" target="qB4JOx8IL-BIcfQESZDg-76">
          <mxGeometry relative="1" as="geometry">
            <mxPoint x="1770" y="430" as="sourcePoint" />
            <mxPoint x="1825" y="350" as="targetPoint" />
          </mxGeometry>
        </mxCell>
        <mxCell id="qB4JOx8IL-BIcfQESZDg-86" value="" style="endArrow=none;html=1;rounded=0;entryX=0.5;entryY=1;entryDx=0;entryDy=0;exitX=0.5;exitY=0;exitDx=0;exitDy=0;" edge="1" parent="1" source="qB4JOx8IL-BIcfQESZDg-84" target="qB4JOx8IL-BIcfQESZDg-77">
          <mxGeometry relative="1" as="geometry">
            <mxPoint x="1860" y="430" as="sourcePoint" />
            <mxPoint x="1915" y="350" as="targetPoint" />
          </mxGeometry>
        </mxCell>
      </root>
    </mxGraphModel>
  </diagram>
</mxfile>
